<!--?xml version="1.0" encoding="utf-8"?-->
<!-- Generator: Adobe Illustrator 18.1.1, SVG Export Plug-In . SVG Version: 6.00 Build 0)  -->

<svg version="1.1" id="_x31_0" xmlns="http://www.w3.org/2000/svg" xmlns:xlink="http://www.w3.org/1999/xlink" x="0px" y="0px" viewBox="0 0 512 512" style="width: 256px; height: 256px; opacity: 1;" xml:space="preserve">
<style type="text/css">
	.st0{fill:#374149;}
</style>
<g>
	<path class="st0" d="M486.316,395.703c-2.778-8.191-10.019-13.973-18.578-14.848c-23.992-2.343-42.058-11.191-50.906-24.722
		c-3.992-6.121-5.961-13.285-5.949-20.562c0.012-0.465-0.051-0.914-0.023-1.379c0.504,0.07,1.007,0.07,1.507,0.07
		c5.34,0,10.68-0.875,15.727-2.558c28.89-9.512,43.668-43.52,32.988-75.778c-2.121-6.438-5.191-12.141-9.07-17.187
		c6.656-20.992,10.606-45.641,7.828-75.118C451.648,76.508,357.366,0,258.183,0c-17.848,0-35.547,2.488-52.59,7.238
		c-7.387,2.07-15.086,5.012-22.902,8.714c-0.918,0.426-1.828,0.946-2.746,1.395c-2.496,1.242-4.988,2.469-7.5,3.878
		c-22.34,12.352-43.91,30.875-61.894,55.172c-0.418,0.562-0.852,1.094-1.266,1.664c-2.191,3.02-4.286,6.176-6.355,9.371
		c-1.039,1.59-2.102,3.141-3.11,4.774c-1.371,2.238-2.653,4.578-3.961,6.898c-1.551,2.73-3.114,5.442-4.578,8.293
		c-0.66,1.297-1.262,2.668-1.906,3.988c-1.93,3.946-3.82,7.938-5.57,12.11c-0.086,0.211-0.164,0.438-0.254,0.653
		c-8.687,20.878-15.051,44.449-17.879,70.922c-15.871,6.218-31.16,19.531-37.668,39.207c-10.679,32.179,4.098,66.191,32.914,75.773
		c4.535,1.466,9.145,2.344,13.894,2.489C101.585,415.45,178.093,512,286.198,512c62.391,0,127.778-31.379,194.266-93.183
		C486.753,412.89,489.093,403.894,486.316,395.703z M441.187,266.238c4.973,19.676-3.512,39.207-19.969,44.691
		c-1.317,0.438-2.633,0.73-3.95,0.95c-1.609,0.293-3.293,0.441-4.902,0.441c-2.339,0-4.679-0.293-6.945-0.878
		c-3.512-0.805-6.95-2.195-10.094-4.242c-7.973-4.898-14.63-13.094-18.066-23.477c-6.875-20.773,5.117-43.449,19.015-48.054
		c2.121-0.734,4.461-1.102,6.875-1.102c7.606,0,16.531,3.367,23.844,9.293c3.074,2.558,5.851,5.558,8.191,8.922
		c2.125,3,3.805,6.437,5.046,10.094C440.6,263.973,440.968,265.141,441.187,266.238z M286.198,490.058
		c-98.011,0-165.304-89.164-189.734-181.324c-1.023-3.656-1.902-7.168-2.706-10.824v-0.074c-0.875-3.656-1.61-7.313-2.266-10.969
		c-3.367,1.754-6.875,2.926-10.462,3.438c-1.39,0.293-2.851,0.363-4.316,0.363c-2.34,0-4.68-0.293-6.95-0.875
		c-0.656-0.148-1.312-0.367-1.972-0.586c-17.336-5.782-25.895-27.282-19.016-48.055c2.852-8.633,8.629-15.652,15.286-20.48
		c3.511-2.558,7.312-4.535,11.117-5.852c3.656-1.242,7.242-1.902,10.68-1.902h0.438c0.148-3.73,0.441-7.386,0.804-10.972
		c0.294-3.73,0.734-7.313,1.246-10.898c2.446-18,6.645-34.493,12.16-49.504c0.199-0.539,0.43-1.047,0.633-1.582
		c1.578-4.191,3.242-8.278,5.016-12.234c1.031-2.289,2.156-4.473,3.25-6.687c1.051-2.141,2.074-4.317,3.18-6.383
		c1.496-2.793,3.086-5.457,4.676-8.125c0.847-1.426,1.66-2.898,2.535-4.285c1.648-2.622,3.378-5.114,5.109-7.61
		c0.961-1.375,1.891-2.805,2.875-4.141c1.504-2.058,3.074-3.996,4.633-5.961c1.363-1.715,2.703-3.469,4.098-5.106
		c1.082-1.274,2.203-2.461,3.305-3.691c2.008-2.234,4.012-4.473,6.066-6.555c0.414-0.422,0.84-0.804,1.254-1.218
		c20.95-20.797,44.176-33.942,64.383-39.586c15.578-4.391,31.23-6.438,46.664-6.438c90.844,0,172.91,70.438,179.859,143.726
		c1.664,17.523,0.59,32.946-2.039,46.926c-0.617,3.176-1.21,6.348-2.035,9.512c-10.007-6.27-21.102-9.481-30.816-9.481
		c-4.828,0-9.434,0.73-13.75,2.195c-27.43,9.07-43.082,45.203-32.988,75.778c5.851,17.554,17.922,31.305,32.77,38.324
		c-3.289,30.746,16.382,63.535,65.836,72.34c3.371,0.625,6.847,1.149,10.426,1.551C398.339,465.207,337.956,490.058,286.198,490.058
		z" style="fill: rgb(110, 24, 235);"></path>
	<path class="st0" d="M196.16,245.614c-1.098,3.144-1.758,6.656-1.758,10.312c0,14.703,10.168,26.551,22.676,26.551
		c12.508,0,22.602-11.848,22.602-26.551c0-3.656-0.586-7.168-1.758-10.312H196.16z" style="fill: rgb(110, 24, 235);"></path>
	<path class="st0" d="M164.925,143.359c-12.508,0-22.602,11.848-22.602,26.477c0,14.703,10.094,26.55,22.602,26.55
		c12.507,0,22.675-11.847,22.675-26.55C187.6,155.207,177.432,143.359,164.925,143.359z" style="fill: rgb(110, 24, 235);"></path>
	<path class="st0" d="M269.156,143.359c-12.508,0-22.676,11.848-22.676,26.477c0,14.703,10.168,26.55,22.676,26.55
		c12.507,0,22.672-11.847,22.672-26.55C291.828,155.207,281.663,143.359,269.156,143.359z" style="fill: rgb(110, 24, 235);"></path>
</g>
</svg>
