<svg xmlns="http://www.w3.org/2000/svg" xmlns:xlink="http://www.w3.org/1999/xlink" width="500" zoomAndPan="magnify" viewBox="0 0 375 374.999991" height="500" preserveAspectRatio="xMidYMid meet" version="1.2"><defs><clipPath id="fddb84da05"><path d="M 85 67 L 290 67 L 290 201.515625 L 85 201.515625 Z M 85 67 "/></clipPath><clipPath id="3777176edd"><path d="M 180 147 L 194.839844 147 L 194.839844 164 L 180 164 Z M 180 147 "/></clipPath><clipPath id="c7bb71bd7e"><rect x="0" width="347" y="0" height="79"/></clipPath><clipPath id="70b5b99b10"><rect x="0" width="178" y="0" height="36"/></clipPath></defs><g id="f01650f8dc"><g clip-rule="nonzero" clip-path="url(#fddb84da05)"><path style=" stroke:none;fill-rule:nonzero;fill:#000000;fill-opacity:1;" d="M 289.238281 114.742188 C 290.257812 110.796875 290.160156 107.371094 288.9375 104.261719 C 288.058594 102.027344 286.527344 100.9375 284.402344 101.054688 C 282.082031 101.167969 281.492188 102.957031 280.964844 104.535156 L 280.917969 104.675781 C 280.347656 106.398438 280.074219 108.191406 279.808594 109.925781 C 279.546875 111.640625 279.277344 113.417969 278.714844 115.089844 C 276.847656 120.667969 272.671875 123.828125 266.957031 123.984375 C 266.046875 124.007812 265.136719 124.019531 264.226562 124.027344 C 262.976562 124.039062 261.730469 124.054688 260.484375 124.105469 C 244.175781 124.800781 227.910156 126.679688 212.179688 128.5 C 200.308594 129.871094 190.519531 129.550781 181.386719 127.496094 C 174.710938 125.992188 170.164062 120.625 169.800781 113.824219 C 169.335938 105.132812 167.871094 96.457031 166.4375 87.980469 C 164.53125 76.707031 157.320312 69.503906 146.132812 67.707031 C 141.609375 66.976562 135.71875 66.507812 130.320312 69.375 C 124.492188 72.464844 119.671875 76.96875 115.992188 82.757812 C 109.90625 92.324219 100.75 98.019531 91.765625 102.753906 C 88.335938 104.558594 86.28125 107.261719 85.476562 111.007812 C 84.929688 113.5625 85.8125 115.523438 88.023438 116.675781 C 88.125 116.730469 88.230469 116.777344 88.335938 116.828125 C 88.847656 117.066406 89.09375 117.195312 89.128906 117.640625 C 89.296875 119.824219 90.785156 121.042969 92.425781 122.203125 C 96.277344 124.925781 100.539062 126.167969 105.105469 125.871094 C 108.605469 125.648438 111.902344 125.75 115.1875 126.179688 C 116.503906 126.351562 116.890625 126.816406 116.855469 128.175781 C 116.769531 131.542969 116.777344 135.253906 116.878906 139.847656 C 116.984375 144.613281 117.320312 149.292969 117.675781 154.246094 C 118.179688 161.25 118.699219 168.492188 118.582031 176.464844 C 118.378906 181.21875 118.554688 187.628906 119.046875 193.617188 C 119.460938 198.644531 121.054688 200.382812 126.152344 201.371094 C 126.558594 201.449219 126.941406 201.492188 127.304688 201.492188 C 129.085938 201.488281 130.324219 200.527344 131.070312 198.578125 C 131.976562 196.203125 132.125 193.738281 132.152344 191.851562 C 132.230469 186.820312 132.300781 181.46875 132.179688 176.214844 C 132.148438 174.75 132.554688 174.265625 133.992188 174.066406 C 135.175781 173.898438 136.125 174.089844 136.804688 174.628906 C 137.640625 175.292969 138.136719 176.523438 138.289062 178.292969 C 138.726562 183.425781 138.765625 188.667969 138.804688 193.734375 L 138.8125 194.863281 C 138.828125 196.445312 138.84375 198.238281 140.355469 199.507812 C 141.949219 200.84375 144.226562 201.304688 146.453125 200.738281 C 148.664062 200.179688 150.429688 198.699219 151.183594 196.78125 C 152.183594 194.226562 152.195312 191.558594 152.09375 189.523438 L 152.046875 188.636719 C 151.832031 184.378906 151.613281 179.972656 151.289062 175.648438 C 151.230469 174.898438 151.320312 174.417969 151.5625 174.171875 C 151.808594 173.917969 152.292969 173.816406 153.097656 173.863281 C 161.109375 174.277344 168.007812 175.199219 174.179688 176.675781 C 191.488281 180.820312 208.84375 179.054688 223.75 177.074219 C 227.660156 176.554688 231.542969 175.636719 235.296875 174.75 C 237.121094 174.316406 238.941406 173.886719 240.769531 173.496094 C 242.648438 173.101562 243.960938 173.210938 244.785156 173.847656 C 245.644531 174.503906 246.089844 175.769531 246.1875 177.828125 L 246.3125 180.441406 C 246.457031 183.484375 246.605469 186.628906 246.816406 189.71875 C 247.011719 192.53125 247.347656 194.867188 248.347656 197.113281 C 249.289062 199.226562 250.882812 200.046875 253.199219 199.625 C 259.265625 198.515625 261.539062 195.984375 261.902344 189.945312 C 262.078125 186.964844 262.152344 183.929688 262.226562 180.992188 C 262.273438 179.023438 262.324219 177.050781 262.402344 175.082031 C 262.429688 174.351562 262.480469 173.722656 262.824219 173.4375 C 263.035156 173.261719 263.375 173.203125 263.847656 173.265625 C 265.171875 173.441406 265.699219 174.027344 265.667969 175.289062 C 265.605469 177.800781 265.621094 180.265625 265.644531 182.992188 L 265.644531 183.160156 C 265.675781 186.550781 265.707031 190.058594 266.601562 193.441406 L 266.632812 193.5625 C 267.074219 195.246094 267.625 197.339844 269.988281 197.566406 C 275.398438 198.085938 278.808594 197.304688 280.253906 191.777344 C 280.6875 190.121094 281.195312 187.921875 281.289062 185.589844 C 281.355469 184.050781 281.398438 182.507812 281.445312 180.964844 C 281.554688 177.285156 281.667969 173.476562 282.03125 169.769531 C 282.949219 160.429688 283.195312 152.859375 282.796875 145.949219 L 282.757812 145.269531 C 282.574219 141.949219 282.382812 138.515625 280.945312 135.363281 C 280.34375 134.042969 280.453125 133.035156 281.355469 131.648438 C 285.335938 125.515625 287.839844 120.140625 289.238281 114.742188 Z M 95.617188 108.695312 C 94.867188 110.707031 93.878906 112.71875 91.703125 113.816406 C 90.699219 114.324219 89.871094 114.296875 89.09375 113.742188 C 88.355469 113.214844 88.277344 112.480469 88.390625 111.464844 C 88.742188 108.347656 91.132812 105.644531 93.480469 105.644531 C 93.546875 105.644531 93.617188 105.648438 93.6875 105.652344 C 94.75 105.726562 95.769531 105.851562 96.035156 106.261719 C 96.304688 106.679688 95.996094 107.675781 95.617188 108.695312 Z M 277.921875 135.46875 C 278.816406 137.152344 278.964844 139.121094 279.105469 141.027344 C 279.132812 141.378906 279.160156 141.730469 279.191406 142.078125 C 279.859375 149.664062 279.273438 157.347656 278.707031 164.78125 C 278.511719 167.378906 278.304688 170.066406 278.15625 172.710938 C 277.992188 175.664062 277.9375 178.667969 277.886719 181.574219 C 277.867188 182.753906 277.847656 183.933594 277.820312 185.109375 C 277.769531 187.285156 277.429688 189.226562 276.777344 191.058594 C 275.882812 193.5625 273.988281 194.742188 271.285156 194.464844 C 270.132812 194.34375 269.945312 193.664062 269.714844 192.46875 L 269.6875 192.34375 C 268.867188 188.160156 268.957031 183.847656 269.042969 179.679688 C 269.070312 178.40625 269.097656 177.132812 269.097656 175.863281 C 269.105469 171.667969 267.753906 170.199219 263.539062 169.816406 C 261.277344 169.613281 259.976562 170.59375 259.398438 172.902344 C 258.605469 176.078125 258.671875 179.320312 258.730469 182.457031 C 258.753906 183.582031 258.777344 184.707031 258.757812 185.828125 L 258.753906 186.359375 C 258.730469 188.199219 258.703125 190.101562 258.308594 191.917969 C 257.773438 194.367188 254.734375 196.597656 252.269531 196.332031 C 251.222656 196.21875 251.007812 195.492188 250.78125 194.304688 L 250.742188 194.097656 C 250.050781 190.574219 249.890625 186.929688 249.734375 183.40625 C 249.683594 182.214844 249.632812 181.027344 249.558594 179.839844 L 249.511719 178.988281 C 249.464844 178.125 249.414062 177.234375 249.320312 176.355469 C 248.789062 171.570312 246.453125 169.683594 241.542969 170.03125 C 239.210938 170.199219 236.976562 170.847656 234.820312 171.476562 C 233.300781 171.914062 231.730469 172.371094 230.152344 172.648438 C 215.554688 175.226562 202.71875 176.285156 190.925781 175.875 C 186.378906 175.71875 181.832031 174.859375 177.433594 174.03125 C 174.875 173.546875 172.226562 173.046875 169.601562 172.6875 C 163.289062 171.824219 157.097656 171.085938 150.707031 171.527344 C 148.1875 171.699219 147.910156 173.097656 147.988281 174.578125 C 148.09375 176.648438 148.242188 178.71875 148.386719 180.789062 C 148.5 182.429688 148.613281 184.070312 148.710938 185.714844 C 148.742188 186.226562 148.777344 186.738281 148.8125 187.25 C 148.992188 189.800781 149.179688 192.4375 148.542969 194.96875 C 147.917969 197.441406 146.875 198.128906 144.277344 197.835938 C 142.550781 197.632812 141.816406 196.839844 141.816406 195.1875 C 141.820312 190.96875 141.765625 186.796875 141.707031 182.535156 C 141.671875 179.90625 141.503906 177.714844 140.8125 175.550781 C 140.15625 173.503906 138.433594 171.957031 136.210938 171.410156 C 133.96875 170.859375 131.714844 171.4375 130.167969 172.957031 C 129.058594 174.042969 129.078125 175.441406 129.09375 176.675781 C 129.097656 176.859375 129.097656 177.042969 129.097656 177.21875 C 129.089844 178.851562 129.121094 180.484375 129.152344 182.117188 C 129.183594 183.792969 129.21875 185.464844 129.203125 187.136719 C 129.1875 189.589844 129.144531 192.195312 128.84375 194.761719 C 128.808594 195.050781 128.792969 195.359375 128.78125 195.671875 C 128.699219 197.328125 128.542969 198.34375 127.011719 198.519531 C 125.878906 198.652344 124.777344 198.347656 123.90625 197.652344 C 122.949219 196.898438 122.34375 195.765625 122.199219 194.46875 C 121.578125 188.871094 121.59375 183.328125 121.707031 178.175781 C 121.886719 169.816406 121.238281 161.371094 120.613281 153.207031 C 120.371094 150.050781 120.128906 146.898438 119.929688 143.738281 L 119.878906 142.890625 C 119.589844 138.308594 119.292969 133.570312 119.285156 128.902344 C 119.285156 127.914062 119.414062 127.371094 119.71875 127.089844 C 119.953125 126.871094 120.351562 126.765625 120.933594 126.765625 C 121.066406 126.765625 121.207031 126.769531 121.355469 126.78125 C 125.160156 127.046875 128.785156 125.976562 132.140625 123.578125 C 132.25 123.5 132.371094 123.421875 132.496094 123.34375 C 133.140625 122.9375 134.226562 122.253906 133.546875 120.988281 C 133.320312 120.554688 133.007812 120.289062 132.621094 120.1875 C 131.878906 119.992188 131.136719 120.464844 130.574219 120.820312 C 125.085938 124.296875 119.140625 123.84375 114.046875 122.9375 C 111.625 122.507812 109.191406 122.6875 106.832031 122.859375 C 106.308594 122.898438 105.789062 122.9375 105.265625 122.96875 C 100.75 123.242188 96.730469 122.140625 93.320312 119.6875 C 92.296875 118.953125 91.792969 118.355469 91.824219 117.917969 C 91.855469 117.488281 92.386719 117.007812 93.449219 116.445312 C 97.847656 114.132812 100.070312 108 98.304688 103.0625 C 98.210938 102.792969 98.191406 102.585938 98.246094 102.472656 C 98.324219 102.320312 98.605469 102.230469 98.878906 102.144531 C 99.070312 102.085938 99.257812 102.023438 99.410156 101.941406 C 106.234375 98.261719 112.019531 93.203125 116.601562 86.910156 C 117.363281 85.863281 118.121094 84.8125 118.875 83.761719 C 120.050781 82.125 121.226562 80.492188 122.425781 78.875 C 126.453125 73.449219 133.613281 70.328125 141.492188 70.445312 C 149.082031 70.585938 155.945312 73.8125 159.410156 78.867188 C 161.175781 81.441406 162.210938 83.667969 162.664062 85.867188 C 164.8125 96.316406 166.289062 105.140625 166.515625 114.253906 C 166.628906 118.867188 165.992188 123.167969 164.617188 127.039062 C 163.707031 129.597656 162.464844 131.128906 160.925781 131.589844 C 159.394531 132.050781 157.511719 131.460938 155.34375 129.832031 C 153.175781 128.207031 151.460938 125.867188 149.949219 122.464844 C 147.78125 117.597656 146.226562 112.398438 144.71875 107.367188 L 144.625 107.054688 C 143.070312 101.875 143.898438 96.820312 147.082031 92.035156 C 147.199219 91.855469 147.339844 91.660156 147.488281 91.457031 C 148.117188 90.589844 148.832031 89.609375 148.6875 88.730469 C 148.628906 88.367188 148.433594 88.066406 148.105469 87.832031 C 146.625 86.769531 145.707031 88.9375 145.09375 89.898438 C 144.074219 91.488281 142.847656 92.894531 142.015625 94.621094 C 140.304688 98.171875 139.945312 102.167969 140.882812 105.988281 C 140.882812 105.988281 141.171875 107.164062 141.171875 107.164062 C 143.085938 114.957031 145.066406 123.015625 150.308594 129.691406 C 152.332031 132.265625 154.949219 133.960938 158.097656 134.734375 C 161.882812 135.660156 164.75 134.359375 166.617188 130.859375 C 167.851562 128.535156 168.40625 126.117188 169.003906 123.195312 C 169.039062 123.023438 169.0625 122.847656 169.082031 122.667969 C 169.121094 122.347656 169.152344 122.058594 169.28125 121.820312 C 171.878906 128.621094 177.691406 130.457031 183.59375 131.425781 C 194.058594 133.148438 205.511719 133.03125 219.640625 131.066406 C 233.640625 129.117188 248.742188 127.921875 267.15625 127.304688 C 273.324219 127.097656 280.679688 122.265625 282.3125 114.535156 C 282.59375 113.214844 282.832031 111.886719 283.070312 110.5625 C 283.339844 109.070312 283.613281 107.527344 283.945312 106.027344 L 284.011719 105.710938 C 284.199219 104.710938 284.390625 104.363281 284.996094 104.445312 C 285.707031 104.53125 285.925781 105.222656 286.152344 106.195312 C 287.089844 110.167969 285.769531 113.9375 284.492188 117.578125 L 284.414062 117.800781 C 283.195312 121.285156 281.425781 124.59375 279.710938 127.789062 C 279.15625 128.824219 278.605469 129.859375 278.066406 130.898438 C 277.40625 132.171875 276.933594 133.609375 277.921875 135.46875 Z M 127.863281 91.542969 C 127.9375 92.703125 126.824219 94.433594 125.6875 95.546875 C 125.113281 96.109375 124.28125 96.757812 123.519531 96.757812 C 123.480469 96.757812 123.445312 96.757812 123.410156 96.753906 C 121.695312 96.613281 120.632812 95.523438 120.335938 93.605469 L 120.328125 93.550781 C 120.308594 92.511719 120.839844 91.371094 121.792969 90.421875 C 122.769531 89.445312 124.027344 88.890625 125.054688 88.898438 C 126.757812 88.929688 127.757812 89.867188 127.863281 91.542969 Z M 127.863281 91.542969 "/></g><g clip-rule="nonzero" clip-path="url(#3777176edd)"><path style=" stroke:none;fill-rule:nonzero;fill:#fb8a99;fill-opacity:1;" d="M 187.320312 151.085938 C 187.765625 150.375 188.125 149.714844 188.566406 149.117188 C 189.335938 148.085938 190.351562 147.425781 191.640625 147.203125 C 193.425781 146.898438 194.636719 147.894531 194.835938 149.695312 C 195.148438 152.507812 194.367188 154.230469 193.015625 156.488281 C 191.441406 159.109375 189.378906 161.925781 187.511719 163.335938 C 186.929688 163.773438 185.378906 161.929688 183.675781 159.894531 C 181.285156 157.03125 179.851562 153.160156 180.519531 150.304688 C 180.933594 148.523438 182.640625 147.824219 184.160156 148.136719 C 185.421875 148.398438 186.300781 149.238281 186.929688 150.339844 C 187.0625 150.570312 187.175781 150.808594 187.320312 151.085938 Z M 187.320312 151.085938 "/></g><g transform="matrix(1,0,0,1,19,196)"><g clip-path="url(#c7bb71bd7e)"><g style="fill:#000000;fill-opacity:1;"><g transform="translate(1.191951, 58.932722)"><path style="stroke:none" d="M 2.109375 0 C 1.679688 0 1.375 -0.128906 1.1875 -0.390625 C 1 -0.648438 0.90625 -1.09375 0.90625 -1.71875 C 0.90625 -2.382812 1 -2.835938 1.1875 -3.078125 C 1.375 -3.316406 1.679688 -3.4375 2.109375 -3.4375 L 6.625 -3.4375 L 6.625 -36.890625 L 2.109375 -36.890625 C 1.679688 -36.890625 1.375 -37.019531 1.1875 -37.28125 C 1 -37.539062 0.90625 -37.984375 0.90625 -38.609375 C 0.90625 -39.273438 1 -39.726562 1.1875 -39.96875 C 1.375 -40.207031 1.679688 -40.328125 2.109375 -40.328125 L 14.984375 -40.328125 C 15.410156 -40.328125 15.707031 -40.207031 15.875 -39.96875 C 16.050781 -39.726562 16.140625 -39.273438 16.140625 -38.609375 C 16.140625 -37.984375 16.050781 -37.539062 15.875 -37.28125 C 15.707031 -37.019531 15.410156 -36.890625 14.984375 -36.890625 L 10.375 -36.890625 L 10.375 -3.4375 L 14.984375 -3.4375 C 15.410156 -3.4375 15.707031 -3.316406 15.875 -3.078125 C 16.050781 -2.835938 16.140625 -2.382812 16.140625 -1.71875 C 16.140625 -1.09375 16.050781 -0.648438 15.875 -0.390625 C 15.707031 -0.128906 15.410156 0 14.984375 0 Z M 2.109375 0 "/></g></g><g style="fill:#000000;fill-opacity:1;"><g transform="translate(27.922502, 58.932722)"><path style="stroke:none" d="M 7.65625 0.609375 C 6.394531 0.609375 5.765625 0.203125 5.765625 -0.609375 L 5.765625 -39.859375 C 5.765625 -40.265625 5.921875 -40.5625 6.234375 -40.75 C 6.554688 -40.9375 7.03125 -41.03125 7.65625 -41.03125 C 8.175781 -41.03125 8.59375 -40.9375 8.90625 -40.75 C 9.226562 -40.5625 9.53125 -40.265625 9.8125 -39.859375 L 30.78125 -7.40625 L 30.78125 -39.859375 C 30.78125 -40.265625 30.9375 -40.5625 31.25 -40.75 C 31.5625 -40.9375 32.035156 -41.03125 32.671875 -41.03125 C 33.929688 -41.03125 34.5625 -40.640625 34.5625 -39.859375 L 34.5625 -0.609375 C 34.5625 -0.203125 34.40625 0.0976562 34.09375 0.296875 C 33.78125 0.503906 33.320312 0.609375 32.71875 0.609375 C 32.257812 0.609375 31.898438 0.535156 31.640625 0.390625 C 31.378906 0.242188 31.09375 -0.0859375 30.78125 -0.609375 L 9.5625 -33.484375 L 9.5625 -0.609375 C 9.5625 -0.203125 9.398438 0.0976562 9.078125 0.296875 C 8.765625 0.503906 8.289062 0.609375 7.65625 0.609375 Z M 7.65625 0.609375 "/></g></g><g style="fill:#000000;fill-opacity:1;"><g transform="translate(77.936584, 58.932722)"><path style="stroke:none" d="M 19.71875 0.8125 C 17.53125 0.8125 15.578125 0.515625 13.859375 -0.078125 C 12.140625 -0.679688 10.675781 -1.566406 9.46875 -2.734375 C 8.257812 -3.898438 7.332031 -5.304688 6.6875 -6.953125 C 6.039062 -8.597656 5.71875 -10.46875 5.71875 -12.5625 L 5.71875 -39.859375 C 5.71875 -40.265625 5.875 -40.5625 6.1875 -40.75 C 6.507812 -40.9375 6.988281 -41.03125 7.625 -41.03125 C 8.25 -41.03125 8.71875 -40.9375 9.03125 -40.75 C 9.351562 -40.5625 9.515625 -40.265625 9.515625 -39.859375 L 9.515625 -12.5625 C 9.515625 -10.5625 9.914062 -8.828125 10.71875 -7.359375 C 11.519531 -5.898438 12.679688 -4.78125 14.203125 -4 C 15.722656 -3.226562 17.5625 -2.84375 19.71875 -2.84375 C 21.84375 -2.84375 23.640625 -3.226562 25.109375 -4 C 26.585938 -4.78125 27.722656 -5.898438 28.515625 -7.359375 C 29.304688 -8.828125 29.703125 -10.5625 29.703125 -12.5625 L 29.703125 -39.859375 C 29.703125 -40.265625 29.859375 -40.5625 30.171875 -40.75 C 30.492188 -40.9375 30.96875 -41.03125 31.59375 -41.03125 C 32.851562 -41.03125 33.484375 -40.640625 33.484375 -39.859375 L 33.484375 -12.5625 C 33.484375 -9.78125 32.929688 -7.382812 31.828125 -5.375 C 30.722656 -3.375 29.144531 -1.84375 27.09375 -0.78125 C 25.039062 0.28125 22.582031 0.8125 19.71875 0.8125 Z M 19.71875 0.8125 "/></g></g><g style="fill:#000000;fill-opacity:1;"><g transform="translate(126.83167, 58.932722)"><path style="stroke:none" d="M 7.65625 0.609375 C 7.03125 0.609375 6.554688 0.503906 6.234375 0.296875 C 5.921875 0.0976562 5.765625 -0.210938 5.765625 -0.640625 L 5.765625 -39.859375 C 5.765625 -40.640625 6.394531 -41.03125 7.65625 -41.03125 C 8.925781 -41.03125 9.5625 -40.640625 9.5625 -39.859375 L 9.5625 -23.28125 L 27.375 -40.640625 C 27.71875 -41.015625 28.054688 -41.148438 28.390625 -41.046875 C 28.722656 -40.941406 29.070312 -40.691406 29.4375 -40.296875 C 29.84375 -39.835938 30.050781 -39.457031 30.0625 -39.15625 C 30.082031 -38.851562 29.960938 -38.554688 29.703125 -38.265625 L 12.359375 -21.265625 C 14.484375 -18.566406 16.519531 -16.078125 18.46875 -13.796875 C 20.414062 -11.515625 22.335938 -9.425781 24.234375 -7.53125 C 26.128906 -5.632812 28.050781 -3.898438 30 -2.328125 C 30.320312 -2.097656 30.515625 -1.757812 30.578125 -1.3125 C 30.648438 -0.863281 30.414062 -0.367188 29.875 0.171875 C 29.5 0.515625 29.109375 0.691406 28.703125 0.703125 C 28.304688 0.722656 27.894531 0.5625 27.46875 0.21875 C 25.832031 -1.132812 24.207031 -2.59375 22.59375 -4.15625 C 20.988281 -5.71875 19.425781 -7.34375 17.90625 -9.03125 C 16.382812 -10.726562 14.921875 -12.457031 13.515625 -14.21875 C 12.109375 -15.988281 10.789062 -17.734375 9.5625 -19.453125 L 9.5625 -0.640625 C 9.5625 -0.210938 9.398438 0.0976562 9.078125 0.296875 C 8.765625 0.503906 8.289062 0.609375 7.65625 0.609375 Z M 7.65625 0.609375 "/></g></g><g style="fill:#000000;fill-opacity:1;"><g transform="translate(167.764743, 58.932722)"><path style="stroke:none" d="M 2.71875 0.609375 C 1.96875 0.609375 1.457031 0.425781 1.1875 0.0625 C 0.914062 -0.289062 0.878906 -0.753906 1.078125 -1.328125 L 14.671875 -39.296875 C 14.898438 -39.960938 15.1875 -40.414062 15.53125 -40.65625 C 15.882812 -40.90625 16.40625 -41.03125 17.09375 -41.03125 C 17.78125 -41.03125 18.285156 -40.90625 18.609375 -40.65625 C 18.941406 -40.414062 19.222656 -39.960938 19.453125 -39.296875 L 33.0625 -1.328125 C 33.289062 -0.753906 33.242188 -0.289062 32.921875 0.0625 C 32.609375 0.425781 32.082031 0.609375 31.34375 0.609375 C 30.707031 0.609375 30.253906 0.484375 29.984375 0.234375 C 29.710938 -0.00390625 29.460938 -0.410156 29.234375 -0.984375 L 25.53125 -11.40625 L 8.484375 -11.40625 L 4.78125 -0.984375 C 4.582031 -0.410156 4.34375 -0.00390625 4.0625 0.234375 C 3.789062 0.484375 3.34375 0.609375 2.71875 0.609375 Z M 9.734375 -14.84375 L 24.28125 -14.84375 L 17.046875 -35.390625 Z M 9.734375 -14.84375 "/></g></g><g style="fill:#000000;fill-opacity:1;"><g transform="translate(211.581353, 58.932722)"><path style="stroke:none" d="M 7.65625 0 C 6.394531 0 5.765625 -0.398438 5.765625 -1.203125 L 5.765625 -39.171875 C 5.765625 -39.578125 5.921875 -39.867188 6.234375 -40.046875 C 6.554688 -40.234375 7.03125 -40.328125 7.65625 -40.328125 L 15.890625 -40.328125 C 19.296875 -40.328125 22.238281 -39.835938 24.71875 -38.859375 C 27.207031 -37.890625 29.269531 -36.566406 30.90625 -34.890625 C 32.539062 -33.210938 33.753906 -31.289062 34.546875 -29.125 C 35.335938 -26.957031 35.734375 -24.664062 35.734375 -22.25 C 35.734375 -19.53125 35.453125 -17.019531 34.890625 -14.71875 C 34.328125 -12.425781 33.460938 -10.375 32.296875 -8.5625 C 31.140625 -6.757812 29.675781 -5.21875 27.90625 -3.9375 C 26.144531 -2.65625 24.050781 -1.675781 21.625 -1 C 19.207031 -0.332031 16.445312 0 13.34375 0 Z M 9.5625 -3.65625 L 13.34375 -3.65625 C 15.863281 -3.65625 18.113281 -3.90625 20.09375 -4.40625 C 22.082031 -4.914062 23.800781 -5.671875 25.25 -6.671875 C 26.695312 -7.671875 27.894531 -8.925781 28.84375 -10.4375 C 29.789062 -11.945312 30.5 -13.679688 30.96875 -15.640625 C 31.445312 -17.609375 31.6875 -19.8125 31.6875 -22.25 C 31.6875 -24.320312 31.347656 -26.234375 30.671875 -27.984375 C 29.992188 -29.734375 28.976562 -31.257812 27.625 -32.5625 C 26.28125 -33.875 24.632812 -34.882812 22.6875 -35.59375 C 20.738281 -36.3125 18.472656 -36.671875 15.890625 -36.671875 L 9.5625 -36.671875 Z M 9.5625 -3.65625 "/></g></g><g style="fill:#000000;fill-opacity:1;"><g transform="translate(260.734674, 58.932722)"><path style="stroke:none" d="M 2.71875 0.609375 C 1.96875 0.609375 1.457031 0.425781 1.1875 0.0625 C 0.914062 -0.289062 0.878906 -0.753906 1.078125 -1.328125 L 14.671875 -39.296875 C 14.898438 -39.960938 15.1875 -40.414062 15.53125 -40.65625 C 15.882812 -40.90625 16.40625 -41.03125 17.09375 -41.03125 C 17.78125 -41.03125 18.285156 -40.90625 18.609375 -40.65625 C 18.941406 -40.414062 19.222656 -39.960938 19.453125 -39.296875 L 33.0625 -1.328125 C 33.289062 -0.753906 33.242188 -0.289062 32.921875 0.0625 C 32.609375 0.425781 32.082031 0.609375 31.34375 0.609375 C 30.707031 0.609375 30.253906 0.484375 29.984375 0.234375 C 29.710938 -0.00390625 29.460938 -0.410156 29.234375 -0.984375 L 25.53125 -11.40625 L 8.484375 -11.40625 L 4.78125 -0.984375 C 4.582031 -0.410156 4.34375 -0.00390625 4.0625 0.234375 C 3.789062 0.484375 3.34375 0.609375 2.71875 0.609375 Z M 9.734375 -14.84375 L 24.28125 -14.84375 L 17.046875 -35.390625 Z M 9.734375 -14.84375 "/></g></g><g style="fill:#000000;fill-opacity:1;"><g transform="translate(304.551266, 58.932722)"><path style="stroke:none" d="M 14.8125 0.8125 C 13.945312 0.8125 13 0.722656 11.96875 0.546875 C 10.9375 0.378906 9.894531 0.101562 8.84375 -0.28125 C 7.800781 -0.664062 6.8125 -1.171875 5.875 -1.796875 C 4.945312 -2.429688 4.148438 -3.207031 3.484375 -4.125 C 3.285156 -4.414062 3.191406 -4.691406 3.203125 -4.953125 C 3.222656 -5.210938 3.429688 -5.539062 3.828125 -5.9375 C 4.234375 -6.375 4.570312 -6.613281 4.84375 -6.65625 C 5.113281 -6.695312 5.519531 -6.472656 6.0625 -5.984375 C 6.726562 -5.347656 7.488281 -4.800781 8.34375 -4.34375 C 9.207031 -3.882812 10.175781 -3.519531 11.25 -3.25 C 12.332031 -2.976562 13.519531 -2.84375 14.8125 -2.84375 C 16.382812 -2.84375 17.75 -3 18.90625 -3.3125 C 20.070312 -3.625 21.039062 -4.101562 21.8125 -4.75 C 22.59375 -5.394531 23.175781 -6.210938 23.5625 -7.203125 C 23.957031 -8.203125 24.15625 -9.375 24.15625 -10.71875 C 24.15625 -11.832031 23.957031 -12.789062 23.5625 -13.59375 C 23.175781 -14.40625 22.617188 -15.101562 21.890625 -15.6875 C 21.160156 -16.28125 20.289062 -16.8125 19.28125 -17.28125 C 18.28125 -17.757812 17.160156 -18.179688 15.921875 -18.546875 C 14.859375 -18.890625 13.78125 -19.285156 12.6875 -19.734375 C 11.601562 -20.179688 10.566406 -20.726562 9.578125 -21.375 C 8.585938 -22.019531 7.710938 -22.785156 6.953125 -23.671875 C 6.191406 -24.566406 5.585938 -25.601562 5.140625 -26.78125 C 4.703125 -27.957031 4.484375 -29.332031 4.484375 -30.90625 C 4.484375 -32.539062 4.769531 -33.972656 5.34375 -35.203125 C 5.914062 -36.441406 6.722656 -37.5 7.765625 -38.375 C 8.816406 -39.25 10.050781 -39.910156 11.46875 -40.359375 C 12.894531 -40.804688 14.46875 -41.03125 16.1875 -41.03125 C 17.707031 -41.03125 19.101562 -40.820312 20.375 -40.40625 C 21.65625 -39.988281 22.835938 -39.425781 23.921875 -38.71875 C 25.015625 -38.019531 26.050781 -37.222656 27.03125 -36.328125 C 27.34375 -36.046875 27.46875 -35.753906 27.40625 -35.453125 C 27.351562 -35.148438 27.171875 -34.84375 26.859375 -34.53125 C 26.515625 -34.15625 26.175781 -33.894531 25.84375 -33.75 C 25.519531 -33.601562 25.195312 -33.644531 24.875 -33.875 C 24.070312 -34.539062 23.238281 -35.132812 22.375 -35.65625 C 21.519531 -36.1875 20.582031 -36.601562 19.5625 -36.90625 C 18.539062 -37.207031 17.414062 -37.359375 16.1875 -37.359375 C 14.945312 -37.359375 13.851562 -37.222656 12.90625 -36.953125 C 11.96875 -36.679688 11.160156 -36.28125 10.484375 -35.75 C 9.804688 -35.21875 9.300781 -34.539062 8.96875 -33.71875 C 8.644531 -32.90625 8.484375 -31.96875 8.484375 -30.90625 C 8.484375 -29.644531 8.679688 -28.5625 9.078125 -27.65625 C 9.484375 -26.75 10.066406 -25.96875 10.828125 -25.3125 C 11.585938 -24.65625 12.484375 -24.09375 13.515625 -23.625 C 14.546875 -23.164062 15.664062 -22.753906 16.875 -22.390625 C 18.132812 -21.984375 19.429688 -21.5 20.765625 -20.9375 C 22.097656 -20.382812 23.316406 -19.671875 24.421875 -18.796875 C 25.535156 -17.921875 26.425781 -16.835938 27.09375 -15.546875 C 27.769531 -14.253906 28.109375 -12.644531 28.109375 -10.71875 C 28.109375 -8.820312 27.804688 -7.15625 27.203125 -5.71875 C 26.597656 -4.289062 25.722656 -3.09375 24.578125 -2.125 C 23.429688 -1.164062 22.03125 -0.4375 20.375 0.0625 C 18.726562 0.5625 16.875 0.8125 14.8125 0.8125 Z M 14.8125 0.8125 "/></g></g></g></g><g transform="matrix(1,0,0,1,101,259)"><g clip-path="url(#70b5b99b10)"><g style="fill:#000000;fill-opacity:1;"><g transform="translate(1.272455, 25.873882)"><path style="stroke:none" d="M 7.34375 0.265625 C 7.039062 0.265625 6.816406 0.207031 6.671875 0.09375 C 6.523438 -0.0078125 6.394531 -0.207031 6.28125 -0.5 L 0.328125 -17.5 C 0.273438 -17.675781 0.289062 -17.828125 0.375 -17.953125 C 0.46875 -18.078125 0.648438 -18.1875 0.921875 -18.28125 C 1.179688 -18.375 1.394531 -18.40625 1.5625 -18.375 C 1.726562 -18.351562 1.835938 -18.253906 1.890625 -18.078125 L 7.375 -2.296875 L 12.84375 -18.078125 C 12.914062 -18.253906 13.035156 -18.351562 13.203125 -18.375 C 13.367188 -18.40625 13.570312 -18.375 13.8125 -18.28125 C 14.09375 -18.1875 14.273438 -18.078125 14.359375 -17.953125 C 14.453125 -17.828125 14.46875 -17.675781 14.40625 -17.5 L 8.4375 -0.5 C 8.320312 -0.207031 8.191406 -0.0078125 8.046875 0.09375 C 7.898438 0.207031 7.664062 0.265625 7.34375 0.265625 Z M 7.34375 0.265625 "/></g></g><g style="fill:#000000;fill-opacity:1;"><g transform="translate(20.332672, 25.873882)"><path style="stroke:none" d="M 5.6875 0.359375 C 4.820312 0.359375 4.050781 0.132812 3.375 -0.3125 C 2.707031 -0.757812 2.179688 -1.367188 1.796875 -2.140625 C 1.410156 -2.921875 1.21875 -3.8125 1.21875 -4.8125 C 1.21875 -5.570312 1.328125 -6.265625 1.546875 -6.890625 C 1.765625 -7.523438 2.070312 -8.070312 2.46875 -8.53125 C 2.875 -9 3.347656 -9.359375 3.890625 -9.609375 C 4.429688 -9.867188 5.03125 -10 5.6875 -10 C 6.539062 -10 7.300781 -9.773438 7.96875 -9.328125 C 8.644531 -8.890625 9.175781 -8.273438 9.5625 -7.484375 C 9.945312 -6.703125 10.140625 -5.8125 10.140625 -4.8125 C 10.140625 -4.207031 10.066406 -3.640625 9.921875 -3.109375 C 9.773438 -2.585938 9.570312 -2.113281 9.3125 -1.6875 C 9.050781 -1.269531 8.738281 -0.90625 8.375 -0.59375 C 8.007812 -0.289062 7.597656 -0.0546875 7.140625 0.109375 C 6.679688 0.273438 6.195312 0.359375 5.6875 0.359375 Z M 5.6875 -1.171875 C 6.101562 -1.171875 6.484375 -1.253906 6.828125 -1.421875 C 7.171875 -1.585938 7.457031 -1.832031 7.6875 -2.15625 C 7.925781 -2.476562 8.109375 -2.863281 8.234375 -3.3125 C 8.367188 -3.757812 8.4375 -4.257812 8.4375 -4.8125 C 8.4375 -5.5625 8.328125 -6.207031 8.109375 -6.75 C 7.890625 -7.300781 7.570312 -7.722656 7.15625 -8.015625 C 6.75 -8.304688 6.257812 -8.453125 5.6875 -8.453125 C 5.257812 -8.453125 4.867188 -8.367188 4.515625 -8.203125 C 4.171875 -8.035156 3.878906 -7.789062 3.640625 -7.46875 C 3.410156 -7.15625 3.226562 -6.773438 3.09375 -6.328125 C 2.96875 -5.890625 2.90625 -5.382812 2.90625 -4.8125 C 2.90625 -4.070312 3.015625 -3.425781 3.234375 -2.875 C 3.460938 -2.332031 3.78125 -1.910156 4.1875 -1.609375 C 4.601562 -1.316406 5.101562 -1.171875 5.6875 -1.171875 Z M 5.6875 -1.171875 "/></g></g><g style="fill:#000000;fill-opacity:1;"><g transform="translate(35.98592, 25.873882)"><path style="stroke:none" d="M 3.71875 0.328125 C 3.050781 0.328125 2.566406 0.15625 2.265625 -0.1875 C 1.960938 -0.539062 1.8125 -1.03125 1.8125 -1.65625 L 1.8125 -9.421875 C 1.8125 -9.585938 1.878906 -9.710938 2.015625 -9.796875 C 2.148438 -9.878906 2.351562 -9.921875 2.625 -9.921875 C 2.90625 -9.921875 3.113281 -9.878906 3.25 -9.796875 C 3.394531 -9.710938 3.46875 -9.585938 3.46875 -9.421875 L 3.46875 -1.84375 C 3.46875 -1.59375 3.523438 -1.410156 3.640625 -1.296875 C 3.753906 -1.179688 3.894531 -1.125 4.0625 -1.125 C 4.207031 -1.125 4.328125 -1.144531 4.421875 -1.1875 C 4.515625 -1.226562 4.601562 -1.28125 4.6875 -1.34375 C 4.769531 -1.40625 4.863281 -1.476562 4.96875 -1.5625 C 5.050781 -1.625 5.15625 -1.628906 5.28125 -1.578125 C 5.414062 -1.523438 5.523438 -1.445312 5.609375 -1.34375 C 5.710938 -1.226562 5.769531 -1.109375 5.78125 -0.984375 C 5.789062 -0.859375 5.757812 -0.742188 5.6875 -0.640625 C 5.539062 -0.429688 5.359375 -0.253906 5.140625 -0.109375 C 4.929688 0.0234375 4.703125 0.128906 4.453125 0.203125 C 4.203125 0.285156 3.957031 0.328125 3.71875 0.328125 Z M 2.65625 -12.890625 C 2.300781 -12.890625 2.03125 -12.988281 1.84375 -13.1875 C 1.65625 -13.382812 1.5625 -13.679688 1.5625 -14.078125 C 1.5625 -14.492188 1.65625 -14.800781 1.84375 -15 C 2.03125 -15.207031 2.300781 -15.3125 2.65625 -15.3125 C 3 -15.3125 3.257812 -15.207031 3.4375 -15 C 3.625 -14.800781 3.71875 -14.492188 3.71875 -14.078125 C 3.726562 -13.679688 3.640625 -13.382812 3.453125 -13.1875 C 3.265625 -12.988281 3 -12.890625 2.65625 -12.890625 Z M 2.65625 -12.890625 "/></g></g><g style="fill:#000000;fill-opacity:1;"><g transform="translate(46.095627, 25.873882)"><path style="stroke:none" d="M 5.640625 0.359375 C 4.785156 0.359375 4.019531 0.164062 3.34375 -0.21875 C 2.664062 -0.601562 2.132812 -1.171875 1.75 -1.921875 C 1.363281 -2.679688 1.171875 -3.613281 1.171875 -4.71875 C 1.171875 -5.488281 1.28125 -6.195312 1.5 -6.84375 C 1.726562 -7.5 2.046875 -8.0625 2.453125 -8.53125 C 2.859375 -9 3.335938 -9.359375 3.890625 -9.609375 C 4.441406 -9.867188 5.050781 -10 5.71875 -10 C 6.28125 -10 6.859375 -9.878906 7.453125 -9.640625 C 8.054688 -9.398438 8.597656 -9 9.078125 -8.4375 C 9.210938 -8.257812 9.265625 -8.097656 9.234375 -7.953125 C 9.203125 -7.816406 9.117188 -7.671875 8.984375 -7.515625 C 8.816406 -7.347656 8.65625 -7.242188 8.5 -7.203125 C 8.351562 -7.160156 8.203125 -7.207031 8.046875 -7.34375 C 7.703125 -7.632812 7.359375 -7.890625 7.015625 -8.109375 C 6.671875 -8.335938 6.210938 -8.453125 5.640625 -8.453125 C 5.222656 -8.453125 4.835938 -8.367188 4.484375 -8.203125 C 4.140625 -8.035156 3.847656 -7.789062 3.609375 -7.46875 C 3.367188 -7.15625 3.1875 -6.773438 3.0625 -6.328125 C 2.9375 -5.890625 2.875 -5.382812 2.875 -4.8125 C 2.875 -4.070312 2.984375 -3.425781 3.203125 -2.875 C 3.429688 -2.332031 3.75 -1.910156 4.15625 -1.609375 C 4.570312 -1.316406 5.066406 -1.171875 5.640625 -1.171875 C 6.054688 -1.171875 6.40625 -1.226562 6.6875 -1.34375 C 6.976562 -1.457031 7.242188 -1.617188 7.484375 -1.828125 C 7.734375 -2.046875 7.992188 -2.300781 8.265625 -2.59375 C 8.410156 -2.738281 8.554688 -2.804688 8.703125 -2.796875 C 8.859375 -2.785156 9.023438 -2.707031 9.203125 -2.5625 C 9.390625 -2.414062 9.507812 -2.273438 9.5625 -2.140625 C 9.613281 -2.015625 9.578125 -1.867188 9.453125 -1.703125 C 9.109375 -1.191406 8.722656 -0.785156 8.296875 -0.484375 C 7.867188 -0.179688 7.425781 0.03125 6.96875 0.15625 C 6.507812 0.289062 6.066406 0.359375 5.640625 0.359375 Z M 5.640625 0.359375 "/></g></g><g style="fill:#000000;fill-opacity:1;"><g transform="translate(60.478476, 25.873882)"><path style="stroke:none" d="M 5.640625 0.359375 C 4.628906 0.359375 3.796875 0.144531 3.140625 -0.28125 C 2.484375 -0.71875 2 -1.296875 1.6875 -2.015625 C 1.375 -2.742188 1.21875 -3.535156 1.21875 -4.390625 C 1.21875 -5.253906 1.332031 -6.03125 1.5625 -6.71875 C 1.800781 -7.40625 2.140625 -7.988281 2.578125 -8.46875 C 3.015625 -8.957031 3.53125 -9.332031 4.125 -9.59375 C 4.726562 -9.863281 5.382812 -10 6.09375 -10 C 6.71875 -10 7.265625 -9.90625 7.734375 -9.71875 C 8.203125 -9.53125 8.566406 -9.242188 8.828125 -8.859375 C 9.097656 -8.484375 9.234375 -8.007812 9.234375 -7.4375 C 9.234375 -6.945312 9.125 -6.503906 8.90625 -6.109375 C 8.695312 -5.710938 8.398438 -5.363281 8.015625 -5.0625 C 7.628906 -4.757812 7.171875 -4.503906 6.640625 -4.296875 C 6.117188 -4.097656 5.53125 -3.945312 4.875 -3.84375 C 4.21875 -3.75 3.523438 -3.695312 2.796875 -3.6875 L 2.796875 -5.03125 C 3.210938 -5.03125 3.644531 -5.054688 4.09375 -5.109375 C 4.539062 -5.171875 4.96875 -5.257812 5.375 -5.375 C 5.78125 -5.488281 6.144531 -5.640625 6.46875 -5.828125 C 6.789062 -6.015625 7.046875 -6.226562 7.234375 -6.46875 C 7.421875 -6.71875 7.515625 -6.992188 7.515625 -7.296875 C 7.515625 -7.710938 7.375 -8.007812 7.09375 -8.1875 C 6.820312 -8.363281 6.453125 -8.453125 5.984375 -8.453125 C 5.566406 -8.453125 5.171875 -8.367188 4.796875 -8.203125 C 4.429688 -8.035156 4.101562 -7.785156 3.8125 -7.453125 C 3.53125 -7.128906 3.304688 -6.738281 3.140625 -6.28125 C 2.984375 -5.820312 2.90625 -5.296875 2.90625 -4.703125 C 2.90625 -3.992188 3.015625 -3.375 3.234375 -2.84375 C 3.460938 -2.320312 3.78125 -1.910156 4.1875 -1.609375 C 4.601562 -1.316406 5.101562 -1.171875 5.6875 -1.171875 C 6.070312 -1.171875 6.398438 -1.21875 6.671875 -1.3125 C 6.941406 -1.414062 7.191406 -1.566406 7.421875 -1.765625 C 7.660156 -1.960938 7.921875 -2.203125 8.203125 -2.484375 C 8.398438 -2.679688 8.578125 -2.78125 8.734375 -2.78125 C 8.898438 -2.78125 9.070312 -2.707031 9.25 -2.5625 C 9.425781 -2.414062 9.535156 -2.265625 9.578125 -2.109375 C 9.617188 -1.953125 9.570312 -1.789062 9.4375 -1.625 C 9.113281 -1.132812 8.734375 -0.742188 8.296875 -0.453125 C 7.867188 -0.160156 7.425781 0.046875 6.96875 0.171875 C 6.507812 0.296875 6.066406 0.359375 5.640625 0.359375 Z M 5.640625 0.359375 "/></g></g><g style="fill:#000000;fill-opacity:1;"><g transform="translate(74.938326, 25.873882)"><path style="stroke:none" d=""/></g></g><g style="fill:#000000;fill-opacity:1;"><g transform="translate(85.048033, 25.873882)"><path style="stroke:none" d="M 6.96875 0.359375 C 6.164062 0.359375 5.425781 0.226562 4.75 -0.03125 C 4.082031 -0.289062 3.503906 -0.664062 3.015625 -1.15625 C 2.535156 -1.644531 2.160156 -2.222656 1.890625 -2.890625 C 1.617188 -3.566406 1.484375 -4.316406 1.484375 -5.140625 C 1.484375 -5.796875 1.570312 -6.382812 1.75 -6.90625 C 1.925781 -7.425781 2.171875 -7.878906 2.484375 -8.265625 C 2.796875 -8.648438 3.148438 -8.988281 3.546875 -9.28125 C 3.953125 -9.582031 4.375 -9.859375 4.8125 -10.109375 C 4.457031 -10.523438 4.132812 -10.9375 3.84375 -11.34375 C 3.5625 -11.757812 3.347656 -12.191406 3.203125 -12.640625 C 3.054688 -13.097656 2.984375 -13.59375 2.984375 -14.125 C 2.984375 -14.695312 3.085938 -15.238281 3.296875 -15.75 C 3.503906 -16.269531 3.800781 -16.722656 4.1875 -17.109375 C 4.570312 -17.492188 5.03125 -17.796875 5.5625 -18.015625 C 6.09375 -18.242188 6.691406 -18.359375 7.359375 -18.359375 C 7.984375 -18.359375 8.550781 -18.257812 9.0625 -18.0625 C 9.582031 -17.875 10.03125 -17.601562 10.40625 -17.25 C 10.789062 -16.90625 11.082031 -16.5 11.28125 -16.03125 C 11.488281 -15.5625 11.59375 -15.046875 11.59375 -14.484375 C 11.59375 -13.960938 11.507812 -13.492188 11.34375 -13.078125 C 11.1875 -12.660156 10.96875 -12.289062 10.6875 -11.96875 C 10.414062 -11.65625 10.097656 -11.367188 9.734375 -11.109375 C 9.367188 -10.847656 8.976562 -10.609375 8.5625 -10.390625 C 8.15625 -10.171875 7.742188 -9.957031 7.328125 -9.75 L 12.21875 -4.484375 C 12.570312 -5.097656 12.847656 -5.800781 13.046875 -6.59375 C 13.242188 -7.382812 13.34375 -8.253906 13.34375 -9.203125 C 13.34375 -9.390625 13.414062 -9.523438 13.5625 -9.609375 C 13.707031 -9.703125 13.921875 -9.75 14.203125 -9.75 C 14.472656 -9.75 14.675781 -9.703125 14.8125 -9.609375 C 14.957031 -9.523438 15.03125 -9.390625 15.03125 -9.203125 C 15.03125 -7.992188 14.878906 -6.890625 14.578125 -5.890625 C 14.285156 -4.898438 13.882812 -4.019531 13.375 -3.25 L 15.5625 -0.890625 C 15.695312 -0.773438 15.738281 -0.632812 15.6875 -0.46875 C 15.644531 -0.300781 15.523438 -0.117188 15.328125 0.078125 C 15.128906 0.265625 14.953125 0.375 14.796875 0.40625 C 14.640625 0.445312 14.492188 0.398438 14.359375 0.265625 L 12.3125 -1.96875 C 11.550781 -1.195312 10.703125 -0.613281 9.765625 -0.21875 C 8.828125 0.164062 7.894531 0.359375 6.96875 0.359375 Z M 7.015625 -1.234375 C 7.753906 -1.234375 8.488281 -1.390625 9.21875 -1.703125 C 9.957031 -2.015625 10.628906 -2.488281 11.234375 -3.125 L 5.875 -8.953125 C 5.5 -8.753906 5.15625 -8.53125 4.84375 -8.28125 C 4.53125 -8.039062 4.253906 -7.769531 4.015625 -7.46875 C 3.773438 -7.164062 3.585938 -6.820312 3.453125 -6.4375 C 3.316406 -6.0625 3.25 -5.632812 3.25 -5.15625 C 3.25 -4.351562 3.410156 -3.65625 3.734375 -3.0625 C 4.066406 -2.46875 4.519531 -2.015625 5.09375 -1.703125 C 5.664062 -1.390625 6.304688 -1.234375 7.015625 -1.234375 Z M 6.296875 -10.84375 C 6.660156 -11.019531 7.015625 -11.203125 7.359375 -11.390625 C 7.703125 -11.578125 8.019531 -11.769531 8.3125 -11.96875 C 8.613281 -12.164062 8.875 -12.382812 9.09375 -12.625 C 9.320312 -12.875 9.5 -13.144531 9.625 -13.4375 C 9.75 -13.738281 9.8125 -14.082031 9.8125 -14.46875 C 9.8125 -14.957031 9.703125 -15.367188 9.484375 -15.703125 C 9.273438 -16.046875 8.984375 -16.3125 8.609375 -16.5 C 8.234375 -16.6875 7.816406 -16.78125 7.359375 -16.78125 C 6.847656 -16.78125 6.394531 -16.664062 6 -16.4375 C 5.601562 -16.21875 5.300781 -15.910156 5.09375 -15.515625 C 4.882812 -15.128906 4.78125 -14.648438 4.78125 -14.078125 C 4.78125 -13.671875 4.835938 -13.285156 4.953125 -12.921875 C 5.066406 -12.566406 5.234375 -12.222656 5.453125 -11.890625 C 5.679688 -11.554688 5.960938 -11.207031 6.296875 -10.84375 Z M 6.296875 -10.84375 "/></g></g><g style="fill:#000000;fill-opacity:1;"><g transform="translate(106.706789, 25.873882)"><path style="stroke:none" d=""/></g></g><g style="fill:#000000;fill-opacity:1;"><g transform="translate(116.816495, 25.873882)"><path style="stroke:none" d="M 7.015625 0.28125 C 6.453125 0.28125 6.171875 0.101562 6.171875 -0.25 L 6.171875 -16.515625 L 0.859375 -16.515625 C 0.671875 -16.515625 0.535156 -16.570312 0.453125 -16.6875 C 0.367188 -16.800781 0.328125 -17 0.328125 -17.28125 C 0.328125 -17.570312 0.367188 -17.769531 0.453125 -17.875 C 0.535156 -17.988281 0.671875 -18.046875 0.859375 -18.046875 L 13.171875 -18.046875 C 13.367188 -18.046875 13.503906 -17.988281 13.578125 -17.875 C 13.660156 -17.769531 13.703125 -17.570312 13.703125 -17.28125 C 13.703125 -17 13.660156 -16.800781 13.578125 -16.6875 C 13.503906 -16.570312 13.367188 -16.515625 13.171875 -16.515625 L 7.859375 -16.515625 L 7.859375 -0.25 C 7.859375 -0.0703125 7.785156 0.0546875 7.640625 0.140625 C 7.503906 0.234375 7.296875 0.28125 7.015625 0.28125 Z M 7.015625 0.28125 "/></g></g><g style="fill:#000000;fill-opacity:1;"><g transform="translate(135.164523, 25.873882)"><path style="stroke:none" d="M 5.640625 0.359375 C 4.628906 0.359375 3.796875 0.144531 3.140625 -0.28125 C 2.484375 -0.71875 2 -1.296875 1.6875 -2.015625 C 1.375 -2.742188 1.21875 -3.535156 1.21875 -4.390625 C 1.21875 -5.253906 1.332031 -6.03125 1.5625 -6.71875 C 1.800781 -7.40625 2.140625 -7.988281 2.578125 -8.46875 C 3.015625 -8.957031 3.53125 -9.332031 4.125 -9.59375 C 4.726562 -9.863281 5.382812 -10 6.09375 -10 C 6.71875 -10 7.265625 -9.90625 7.734375 -9.71875 C 8.203125 -9.53125 8.566406 -9.242188 8.828125 -8.859375 C 9.097656 -8.484375 9.234375 -8.007812 9.234375 -7.4375 C 9.234375 -6.945312 9.125 -6.503906 8.90625 -6.109375 C 8.695312 -5.710938 8.398438 -5.363281 8.015625 -5.0625 C 7.628906 -4.757812 7.171875 -4.503906 6.640625 -4.296875 C 6.117188 -4.097656 5.53125 -3.945312 4.875 -3.84375 C 4.21875 -3.75 3.523438 -3.695312 2.796875 -3.6875 L 2.796875 -5.03125 C 3.210938 -5.03125 3.644531 -5.054688 4.09375 -5.109375 C 4.539062 -5.171875 4.96875 -5.257812 5.375 -5.375 C 5.78125 -5.488281 6.144531 -5.640625 6.46875 -5.828125 C 6.789062 -6.015625 7.046875 -6.226562 7.234375 -6.46875 C 7.421875 -6.71875 7.515625 -6.992188 7.515625 -7.296875 C 7.515625 -7.710938 7.375 -8.007812 7.09375 -8.1875 C 6.820312 -8.363281 6.453125 -8.453125 5.984375 -8.453125 C 5.566406 -8.453125 5.171875 -8.367188 4.796875 -8.203125 C 4.429688 -8.035156 4.101562 -7.785156 3.8125 -7.453125 C 3.53125 -7.128906 3.304688 -6.738281 3.140625 -6.28125 C 2.984375 -5.820312 2.90625 -5.296875 2.90625 -4.703125 C 2.90625 -3.992188 3.015625 -3.375 3.234375 -2.84375 C 3.460938 -2.320312 3.78125 -1.910156 4.1875 -1.609375 C 4.601562 -1.316406 5.101562 -1.171875 5.6875 -1.171875 C 6.070312 -1.171875 6.398438 -1.21875 6.671875 -1.3125 C 6.941406 -1.414062 7.191406 -1.566406 7.421875 -1.765625 C 7.660156 -1.960938 7.921875 -2.203125 8.203125 -2.484375 C 8.398438 -2.679688 8.578125 -2.78125 8.734375 -2.78125 C 8.898438 -2.78125 9.070312 -2.707031 9.25 -2.5625 C 9.425781 -2.414062 9.535156 -2.265625 9.578125 -2.109375 C 9.617188 -1.953125 9.570312 -1.789062 9.4375 -1.625 C 9.113281 -1.132812 8.734375 -0.742188 8.296875 -0.453125 C 7.867188 -0.160156 7.425781 0.046875 6.96875 0.171875 C 6.507812 0.296875 6.066406 0.359375 5.640625 0.359375 Z M 5.640625 0.359375 "/></g></g><g style="fill:#000000;fill-opacity:1;"><g transform="translate(149.624373, 25.873882)"><path style="stroke:none" d="M 9.359375 -0.765625 C 9.503906 -0.597656 9.566406 -0.4375 9.546875 -0.28125 C 9.523438 -0.132812 9.453125 -0.0078125 9.328125 0.09375 C 9.210938 0.195312 9.054688 0.257812 8.859375 0.28125 C 8.609375 0.320312 8.398438 0.296875 8.234375 0.203125 C 8.078125 0.117188 7.90625 -0.03125 7.71875 -0.25 L 5.0625 -3.640625 L 2.390625 -0.171875 C 2.242188 0.00390625 2.113281 0.125 2 0.1875 C 1.894531 0.25 1.773438 0.28125 1.640625 0.28125 C 1.273438 0.28125 1.003906 0.179688 0.828125 -0.015625 C 0.648438 -0.222656 0.671875 -0.46875 0.890625 -0.75 L 4.125 -4.8125 L 0.96875 -8.828125 C 0.800781 -9.054688 0.722656 -9.242188 0.734375 -9.390625 C 0.753906 -9.535156 0.828125 -9.65625 0.953125 -9.75 C 1.078125 -9.84375 1.203125 -9.898438 1.328125 -9.921875 C 1.609375 -9.984375 1.828125 -9.976562 1.984375 -9.90625 C 2.148438 -9.84375 2.289062 -9.726562 2.40625 -9.5625 L 5.21875 -6.03125 L 7.953125 -9.453125 C 8.097656 -9.640625 8.222656 -9.765625 8.328125 -9.828125 C 8.429688 -9.898438 8.550781 -9.9375 8.6875 -9.9375 C 8.9375 -9.9375 9.140625 -9.890625 9.296875 -9.796875 C 9.453125 -9.703125 9.546875 -9.570312 9.578125 -9.40625 C 9.617188 -9.25 9.5625 -9.070312 9.40625 -8.875 L 6.171875 -4.8125 Z M 9.359375 -0.765625 "/></g></g><g style="fill:#000000;fill-opacity:1;"><g transform="translate(164.238206, 25.873882)"><path style="stroke:none" d="M 4.6875 0.328125 C 4.144531 0.328125 3.695312 0.226562 3.34375 0.03125 C 2.988281 -0.164062 2.722656 -0.445312 2.546875 -0.8125 C 2.378906 -1.1875 2.296875 -1.628906 2.296875 -2.140625 L 2.296875 -8.09375 L 0.796875 -8.09375 C 0.597656 -8.09375 0.457031 -8.148438 0.375 -8.265625 C 0.300781 -8.378906 0.265625 -8.578125 0.265625 -8.859375 C 0.265625 -9.160156 0.300781 -9.363281 0.375 -9.46875 C 0.457031 -9.582031 0.597656 -9.640625 0.796875 -9.640625 L 2.296875 -9.640625 L 2.296875 -13.5625 C 2.296875 -13.726562 2.363281 -13.851562 2.5 -13.9375 C 2.632812 -14.019531 2.835938 -14.0625 3.109375 -14.0625 C 3.390625 -14.0625 3.597656 -14.019531 3.734375 -13.9375 C 3.878906 -13.851562 3.953125 -13.726562 3.953125 -13.5625 L 3.953125 -9.640625 L 6.375 -9.640625 C 6.570312 -9.640625 6.710938 -9.582031 6.796875 -9.46875 C 6.878906 -9.363281 6.921875 -9.160156 6.921875 -8.859375 C 6.921875 -8.578125 6.878906 -8.378906 6.796875 -8.265625 C 6.710938 -8.148438 6.570312 -8.09375 6.375 -8.09375 L 3.953125 -8.09375 L 3.953125 -2.328125 C 3.953125 -1.890625 4.007812 -1.578125 4.125 -1.390625 C 4.25 -1.210938 4.472656 -1.125 4.796875 -1.125 C 5.085938 -1.125 5.335938 -1.191406 5.546875 -1.328125 C 5.765625 -1.472656 5.988281 -1.644531 6.21875 -1.84375 C 6.375 -1.988281 6.519531 -2.035156 6.65625 -1.984375 C 6.789062 -1.941406 6.914062 -1.863281 7.03125 -1.75 C 7.175781 -1.625 7.25 -1.492188 7.25 -1.359375 C 7.257812 -1.222656 7.222656 -1.097656 7.140625 -0.984375 C 6.921875 -0.660156 6.675781 -0.398438 6.40625 -0.203125 C 6.144531 -0.015625 5.863281 0.117188 5.5625 0.203125 C 5.269531 0.285156 4.976562 0.328125 4.6875 0.328125 Z M 4.6875 0.328125 "/></g></g></g></g></g></svg>