<svg xmlns="http://www.w3.org/2000/svg" xmlns:xlink="http://www.w3.org/1999/xlink" width="500" zoomAndPan="magnify" viewBox="0 0 375 37.5" height="50" preserveAspectRatio="xMidYMid meet" version="1.2"><defs><clipPath id="3db9b361b9"><path d="M 67 0 L 315 0 L 315 37.007812 L 67 37.007812 Z M 67 0 "/></clipPath><clipPath id="448b59f5d4"><rect x="0" width="248" y="0" height="38"/></clipPath></defs><g id="9aebcb413e"><g clip-rule="nonzero" clip-path="url(#3db9b361b9)"><g transform="matrix(1,0,0,1,67,-0.000000000000001478)"><g clip-path="url(#448b59f5d4)"><g style="fill:#5e17eb;fill-opacity:1;"><g transform="translate(1.133657, 32.894667)"><path style="stroke:none" d="M 1.5 0 C 1.195312 0 0.976562 -0.0859375 0.84375 -0.265625 C 0.707031 -0.453125 0.640625 -0.773438 0.640625 -1.234375 C 0.640625 -1.703125 0.707031 -2.019531 0.84375 -2.1875 C 0.976562 -2.363281 1.195312 -2.453125 1.5 -2.453125 L 4.734375 -2.453125 L 4.734375 -26.328125 L 1.5 -26.328125 C 1.195312 -26.328125 0.976562 -26.414062 0.84375 -26.59375 C 0.707031 -26.78125 0.640625 -27.101562 0.640625 -27.5625 C 0.640625 -28.03125 0.707031 -28.347656 0.84375 -28.515625 C 0.976562 -28.691406 1.195312 -28.78125 1.5 -28.78125 L 10.6875 -28.78125 C 11 -28.78125 11.210938 -28.691406 11.328125 -28.515625 C 11.453125 -28.347656 11.515625 -28.03125 11.515625 -27.5625 C 11.515625 -27.101562 11.453125 -26.78125 11.328125 -26.59375 C 11.210938 -26.414062 11 -26.328125 10.6875 -26.328125 L 7.40625 -26.328125 L 7.40625 -2.453125 L 10.6875 -2.453125 C 11 -2.453125 11.210938 -2.363281 11.328125 -2.1875 C 11.453125 -2.019531 11.515625 -1.703125 11.515625 -1.234375 C 11.515625 -0.773438 11.453125 -0.453125 11.328125 -0.265625 C 11.210938 -0.0859375 11 0 10.6875 0 Z M 1.5 0 "/></g></g><g style="fill:#5e17eb;fill-opacity:1;"><g transform="translate(20.204635, 32.894667)"><path style="stroke:none" d="M 5.46875 0.4375 C 4.5625 0.4375 4.109375 0.144531 4.109375 -0.4375 L 4.109375 -28.453125 C 4.109375 -28.734375 4.222656 -28.941406 4.453125 -29.078125 C 4.679688 -29.210938 5.019531 -29.28125 5.46875 -29.28125 C 5.832031 -29.28125 6.128906 -29.210938 6.359375 -29.078125 C 6.585938 -28.941406 6.800781 -28.734375 7 -28.453125 L 21.96875 -5.28125 L 21.96875 -28.453125 C 21.96875 -28.734375 22.078125 -28.941406 22.296875 -29.078125 C 22.523438 -29.210938 22.863281 -29.28125 23.3125 -29.28125 C 24.21875 -29.28125 24.671875 -29.003906 24.671875 -28.453125 L 24.671875 -0.4375 C 24.671875 -0.144531 24.554688 0.0703125 24.328125 0.21875 C 24.097656 0.363281 23.769531 0.4375 23.34375 0.4375 C 23.019531 0.4375 22.765625 0.382812 22.578125 0.28125 C 22.390625 0.175781 22.1875 -0.0625 21.96875 -0.4375 L 6.8125 -23.90625 L 6.8125 -0.4375 C 6.8125 -0.144531 6.695312 0.0703125 6.46875 0.21875 C 6.25 0.363281 5.914062 0.4375 5.46875 0.4375 Z M 5.46875 0.4375 "/></g></g><g style="fill:#5e17eb;fill-opacity:1;"><g transform="translate(55.887305, 32.894667)"><path style="stroke:none" d="M 14.0625 0.578125 C 12.507812 0.578125 11.117188 0.363281 9.890625 -0.0625 C 8.660156 -0.488281 7.613281 -1.113281 6.75 -1.9375 C 5.894531 -2.769531 5.234375 -3.773438 4.765625 -4.953125 C 4.304688 -6.140625 4.078125 -7.476562 4.078125 -8.96875 L 4.078125 -28.453125 C 4.078125 -28.734375 4.191406 -28.941406 4.421875 -29.078125 C 4.648438 -29.210938 4.988281 -29.28125 5.4375 -29.28125 C 5.882812 -29.28125 6.21875 -29.210938 6.4375 -29.078125 C 6.664062 -28.941406 6.78125 -28.734375 6.78125 -28.453125 L 6.78125 -8.96875 C 6.78125 -7.53125 7.066406 -6.289062 7.640625 -5.25 C 8.222656 -4.207031 9.054688 -3.410156 10.140625 -2.859375 C 11.222656 -2.304688 12.53125 -2.03125 14.0625 -2.03125 C 15.582031 -2.03125 16.867188 -2.304688 17.921875 -2.859375 C 18.972656 -3.410156 19.78125 -4.207031 20.34375 -5.25 C 20.914062 -6.289062 21.203125 -7.53125 21.203125 -8.96875 L 21.203125 -28.453125 C 21.203125 -28.734375 21.3125 -28.941406 21.53125 -29.078125 C 21.757812 -29.210938 22.097656 -29.28125 22.546875 -29.28125 C 23.453125 -29.28125 23.90625 -29.003906 23.90625 -28.453125 L 23.90625 -8.96875 C 23.90625 -6.976562 23.507812 -5.265625 22.71875 -3.828125 C 21.925781 -2.398438 20.796875 -1.304688 19.328125 -0.546875 C 17.867188 0.203125 16.113281 0.578125 14.0625 0.578125 Z M 14.0625 0.578125 "/></g></g><g style="fill:#5e17eb;fill-opacity:1;"><g transform="translate(90.771625, 32.894667)"><path style="stroke:none" d="M 5.46875 0.4375 C 5.019531 0.4375 4.679688 0.363281 4.453125 0.21875 C 4.222656 0.0703125 4.109375 -0.148438 4.109375 -0.453125 L 4.109375 -28.453125 C 4.109375 -29.003906 4.5625 -29.28125 5.46875 -29.28125 C 6.363281 -29.28125 6.8125 -29.003906 6.8125 -28.453125 L 6.8125 -16.625 L 19.53125 -29 C 19.78125 -29.257812 20.019531 -29.351562 20.25 -29.28125 C 20.488281 -29.21875 20.742188 -29.039062 21.015625 -28.75 C 21.296875 -28.425781 21.441406 -28.15625 21.453125 -27.9375 C 21.460938 -27.71875 21.378906 -27.507812 21.203125 -27.3125 L 8.8125 -15.171875 C 10.332031 -13.242188 11.785156 -11.46875 13.171875 -9.84375 C 14.566406 -8.21875 15.941406 -6.726562 17.296875 -5.375 C 18.648438 -4.019531 20.019531 -2.78125 21.40625 -1.65625 C 21.632812 -1.488281 21.773438 -1.242188 21.828125 -0.921875 C 21.878906 -0.609375 21.707031 -0.257812 21.3125 0.125 C 21.050781 0.363281 20.773438 0.488281 20.484375 0.5 C 20.203125 0.507812 19.90625 0.394531 19.59375 0.15625 C 18.425781 -0.8125 17.269531 -1.851562 16.125 -2.96875 C 14.976562 -4.082031 13.863281 -5.242188 12.78125 -6.453125 C 11.695312 -7.660156 10.648438 -8.894531 9.640625 -10.15625 C 8.640625 -11.414062 7.695312 -12.660156 6.8125 -13.890625 L 6.8125 -0.453125 C 6.8125 -0.148438 6.695312 0.0703125 6.46875 0.21875 C 6.25 0.363281 5.914062 0.4375 5.46875 0.4375 Z M 5.46875 0.4375 "/></g></g><g style="fill:#5e17eb;fill-opacity:1;"><g transform="translate(119.975427, 32.894667)"><path style="stroke:none" d="M 1.9375 0.4375 C 1.40625 0.4375 1.039062 0.304688 0.84375 0.046875 C 0.644531 -0.210938 0.617188 -0.546875 0.765625 -0.953125 L 10.46875 -28.046875 C 10.632812 -28.515625 10.835938 -28.835938 11.078125 -29.015625 C 11.328125 -29.191406 11.703125 -29.28125 12.203125 -29.28125 C 12.691406 -29.28125 13.050781 -29.191406 13.28125 -29.015625 C 13.519531 -28.835938 13.722656 -28.515625 13.890625 -28.046875 L 23.59375 -0.953125 C 23.757812 -0.546875 23.726562 -0.210938 23.5 0.046875 C 23.269531 0.304688 22.890625 0.4375 22.359375 0.4375 C 21.910156 0.4375 21.585938 0.347656 21.390625 0.171875 C 21.203125 -0.00390625 21.023438 -0.296875 20.859375 -0.703125 L 18.21875 -8.140625 L 6.046875 -8.140625 L 3.40625 -0.703125 C 3.257812 -0.296875 3.085938 -0.00390625 2.890625 0.171875 C 2.703125 0.347656 2.382812 0.4375 1.9375 0.4375 Z M 6.9375 -10.59375 L 17.328125 -10.59375 L 12.171875 -25.25 Z M 6.9375 -10.59375 "/></g></g><g style="fill:#5e17eb;fill-opacity:1;"><g transform="translate(151.236496, 32.894667)"><path style="stroke:none" d="M 5.46875 0 C 4.5625 0 4.109375 -0.285156 4.109375 -0.859375 L 4.109375 -27.953125 C 4.109375 -28.242188 4.222656 -28.453125 4.453125 -28.578125 C 4.679688 -28.710938 5.019531 -28.78125 5.46875 -28.78125 L 11.328125 -28.78125 C 13.765625 -28.78125 15.867188 -28.429688 17.640625 -27.734375 C 19.421875 -27.035156 20.894531 -26.085938 22.0625 -24.890625 C 23.226562 -23.691406 24.09375 -22.320312 24.65625 -20.78125 C 25.21875 -19.238281 25.5 -17.601562 25.5 -15.875 C 25.5 -13.9375 25.296875 -12.144531 24.890625 -10.5 C 24.492188 -8.863281 23.878906 -7.398438 23.046875 -6.109375 C 22.222656 -4.816406 21.179688 -3.710938 19.921875 -2.796875 C 18.660156 -1.890625 17.164062 -1.195312 15.4375 -0.71875 C 13.707031 -0.238281 11.734375 0 9.515625 0 Z M 6.8125 -2.609375 L 9.515625 -2.609375 C 11.316406 -2.609375 12.925781 -2.785156 14.34375 -3.140625 C 15.757812 -3.503906 16.984375 -4.046875 18.015625 -4.765625 C 19.046875 -5.484375 19.898438 -6.378906 20.578125 -7.453125 C 21.253906 -8.523438 21.757812 -9.757812 22.09375 -11.15625 C 22.4375 -12.5625 22.609375 -14.132812 22.609375 -15.875 C 22.609375 -17.351562 22.367188 -18.71875 21.890625 -19.96875 C 21.410156 -21.21875 20.6875 -22.304688 19.71875 -23.234375 C 18.757812 -24.171875 17.582031 -24.894531 16.1875 -25.40625 C 14.789062 -25.914062 13.171875 -26.171875 11.328125 -26.171875 L 6.8125 -26.171875 Z M 6.8125 -2.609375 "/></g></g><g style="fill:#5e17eb;fill-opacity:1;"><g transform="translate(186.305054, 32.894667)"><path style="stroke:none" d="M 1.9375 0.4375 C 1.40625 0.4375 1.039062 0.304688 0.84375 0.046875 C 0.644531 -0.210938 0.617188 -0.546875 0.765625 -0.953125 L 10.46875 -28.046875 C 10.632812 -28.515625 10.835938 -28.835938 11.078125 -29.015625 C 11.328125 -29.191406 11.703125 -29.28125 12.203125 -29.28125 C 12.691406 -29.28125 13.050781 -29.191406 13.28125 -29.015625 C 13.519531 -28.835938 13.722656 -28.515625 13.890625 -28.046875 L 23.59375 -0.953125 C 23.757812 -0.546875 23.726562 -0.210938 23.5 0.046875 C 23.269531 0.304688 22.890625 0.4375 22.359375 0.4375 C 21.910156 0.4375 21.585938 0.347656 21.390625 0.171875 C 21.203125 -0.00390625 21.023438 -0.296875 20.859375 -0.703125 L 18.21875 -8.140625 L 6.046875 -8.140625 L 3.40625 -0.703125 C 3.257812 -0.296875 3.085938 -0.00390625 2.890625 0.171875 C 2.703125 0.347656 2.382812 0.4375 1.9375 0.4375 Z M 6.9375 -10.59375 L 17.328125 -10.59375 L 12.171875 -25.25 Z M 6.9375 -10.59375 "/></g></g><g style="fill:#5e17eb;fill-opacity:1;"><g transform="translate(217.56611, 32.894667)"><path style="stroke:none" d="M 10.5625 0.578125 C 9.945312 0.578125 9.269531 0.515625 8.53125 0.390625 C 7.800781 0.273438 7.0625 0.0820312 6.3125 -0.1875 C 5.5625 -0.46875 4.851562 -0.832031 4.1875 -1.28125 C 3.519531 -1.738281 2.953125 -2.296875 2.484375 -2.953125 C 2.335938 -3.148438 2.269531 -3.34375 2.28125 -3.53125 C 2.289062 -3.71875 2.441406 -3.953125 2.734375 -4.234375 C 3.015625 -4.546875 3.253906 -4.71875 3.453125 -4.75 C 3.648438 -4.78125 3.941406 -4.617188 4.328125 -4.265625 C 4.796875 -3.816406 5.335938 -3.425781 5.953125 -3.09375 C 6.566406 -2.769531 7.257812 -2.507812 8.03125 -2.3125 C 8.800781 -2.125 9.644531 -2.03125 10.5625 -2.03125 C 11.6875 -2.03125 12.664062 -2.140625 13.5 -2.359375 C 14.332031 -2.585938 15.023438 -2.929688 15.578125 -3.390625 C 16.128906 -3.847656 16.539062 -4.429688 16.8125 -5.140625 C 17.09375 -5.847656 17.234375 -6.6875 17.234375 -7.65625 C 17.234375 -8.445312 17.09375 -9.128906 16.8125 -9.703125 C 16.539062 -10.273438 16.144531 -10.769531 15.625 -11.1875 C 15.101562 -11.613281 14.484375 -11.992188 13.765625 -12.328125 C 13.046875 -12.671875 12.242188 -12.972656 11.359375 -13.234375 C 10.609375 -13.484375 9.84375 -13.765625 9.0625 -14.078125 C 8.28125 -14.398438 7.535156 -14.789062 6.828125 -15.25 C 6.128906 -15.707031 5.503906 -16.253906 4.953125 -16.890625 C 4.410156 -17.523438 3.976562 -18.257812 3.65625 -19.09375 C 3.34375 -19.9375 3.1875 -20.925781 3.1875 -22.0625 C 3.1875 -23.226562 3.390625 -24.25 3.796875 -25.125 C 4.210938 -26.007812 4.796875 -26.765625 5.546875 -27.390625 C 6.296875 -28.015625 7.175781 -28.484375 8.1875 -28.796875 C 9.195312 -29.117188 10.316406 -29.28125 11.546875 -29.28125 C 12.628906 -29.28125 13.625 -29.128906 14.53125 -28.828125 C 15.445312 -28.535156 16.296875 -28.132812 17.078125 -27.625 C 17.859375 -27.125 18.597656 -26.554688 19.296875 -25.921875 C 19.515625 -25.722656 19.601562 -25.515625 19.5625 -25.296875 C 19.519531 -25.078125 19.390625 -24.859375 19.171875 -24.640625 C 18.921875 -24.367188 18.675781 -24.179688 18.4375 -24.078125 C 18.207031 -23.984375 17.976562 -24.015625 17.75 -24.171875 C 17.175781 -24.640625 16.582031 -25.0625 15.96875 -25.4375 C 15.351562 -25.820312 14.679688 -26.117188 13.953125 -26.328125 C 13.234375 -26.546875 12.429688 -26.65625 11.546875 -26.65625 C 10.671875 -26.65625 9.894531 -26.554688 9.21875 -26.359375 C 8.539062 -26.171875 7.960938 -25.882812 7.484375 -25.5 C 7.003906 -25.125 6.644531 -24.644531 6.40625 -24.0625 C 6.164062 -23.476562 6.046875 -22.8125 6.046875 -22.0625 C 6.046875 -21.15625 6.1875 -20.378906 6.46875 -19.734375 C 6.757812 -19.085938 7.175781 -18.53125 7.71875 -18.0625 C 8.269531 -17.59375 8.910156 -17.191406 9.640625 -16.859375 C 10.378906 -16.535156 11.179688 -16.238281 12.046875 -15.96875 C 12.941406 -15.6875 13.863281 -15.34375 14.8125 -14.9375 C 15.769531 -14.539062 16.640625 -14.03125 17.421875 -13.40625 C 18.210938 -12.78125 18.847656 -12.003906 19.328125 -11.078125 C 19.816406 -10.160156 20.0625 -9.019531 20.0625 -7.65625 C 20.0625 -6.300781 19.84375 -5.109375 19.40625 -4.078125 C 18.976562 -3.054688 18.351562 -2.203125 17.53125 -1.515625 C 16.71875 -0.828125 15.722656 -0.304688 14.546875 0.046875 C 13.367188 0.398438 12.039062 0.578125 10.5625 0.578125 Z M 10.5625 0.578125 "/></g></g></g></g></g></g></svg>